# xmcd CD database file
#
# Track frame offsets:
#	150
#	23665
#	47839
#	75368
#	105259
#	126858
#	157337
#	189705
#	205587
#
# Disc length: 2855 seconds
#
# Revision: 0
# Processed by: cddbd v1.5.1PL2 Copyright (c) Steve Scherf et al.
# Submitted via: CDex 1.51
#
DISCID=6b0b2509
DTITLE=Miten - Global Heart Native Soul
DYEAR=1900
DGENRE=New Age
TTITLE0=Miten - Hari Om [India]
TTITLE1=Miten - Ku Wa Te [Celebration of the Oneness of All Things]
TTITLE2=Miten - Na Ki le (Harvest Song) [Africa]
TTITLE3=Miten - Ya Az Im [How Beautifully Does God Reveal Himself Through You] [Sufi]
TTITLE4=Miten - Yanna Wanna [Celebration of the Wise Woman]
TTITLE5=Miten - Dil Se Dil (Heart to Heart) [India]
TTITLE6=Miten - Global Heart [The Dream of the Mystic]
TTITLE7=Miten - Ha Jina [Africa]
TTITLE8=Miten - Sangita [From Song Into Silence]
EXTD=
EXTT0=
EXTT1=
EXTT2=
EXTT3=
EXTT4=
EXTT5=
EXTT6=
EXTT7=
EXTT8=
PLAYORDER=
